<?xml version="1.0" encoding="utf-8"?>
<!-- Generator: Adobe Illustrator 27.6.1, SVG Export Plug-In . SVG Version: 6.00 Build 0)  -->
<svg version="1.2" baseProfile="tiny" id="g-cost_of_sunlight_buildings_full-full-size-interactions-img" xmlns="http://www.w3.org/2000/svg" xmlns:xlink="http://www.w3.org/1999/xlink"
	 x="0px" y="0px" viewBox="0 0 1350.111 7563.944" overflow="visible" xml:space="preserve">
<g>
	<path id="window9_00000018238217166897326810000013564423462574379676_" fill="#F1DD70" d="M904.717,1772.595
		c-5.244-5.601,2.062-10.58,0.054-16.662c-1.792-5.427-1.379-11.979-1.519-18.039c-0.13-5.663,2.428-9.091,6.894-11.029
		c5.799-2.516,9.574,1.014,10.099,7.938c0.808,10.646-9.385,19.681-2.339,30.939
		C914.396,1770.516,910.013,1772.877,904.717,1772.595z"/>
	<g id="window8_00000181060788068951238360000016568972979184313263_">
		<path fill="#F1DD70" d="M1317.991,1992.438c7.766,13.148,21.898,18.563,26.201,33.478c12.983,5.339,12.403,18.082,12.023,30.833
			c-7.631-0.928-3.971-13.73-11.702-15.215c-7.006-1.346-9.175-8.695-9.765-16.298c-0.599-7.718-3.858-6.906-8.462-5.307
			c-0.957,0.333-3.964-3.93-4.598-6.551C1320.034,2006.539,1319.17,1999.435,1317.991,1992.438z"/>
	</g>
	<path id="window7_00000145771395443092780260000000299171086341081516_" fill="#F1DD70" d="M882.711,2138.551
		c-4.059-5.367-2.188-11.861-2.096-17.706c0.391-25.055,2.8-26.94,20.911-29.344c3.792,6.576,2.333,13.861,1.945,20.862
		C902.363,2132.363,902.254,2132.352,882.711,2138.551z"/>
	<path id="window6_00000083081797971202463910000004130149015130707072_" fill="#F1DD70" d="M840.935,2857.126
		c-2.541-17.398-0.899-31.745-0.073-46.059c0.294-5.088,1.62-10.064,1.938-15.152c1.381-22.108,5.444-27.288,24.284-29.774
		c4.31-0.568,6.223,2.99,6.093,7.493c-0.597,20.63-1.739,41.231-2.075,61.87c-0.146,8.941-4.12,13.138-10.188,15.452
		C855.26,2853.114,849.407,2854.55,840.935,2857.126z"/>
	<path id="window5_00000164494160934632896170000008332127997946844850_" fill="#F1DD70" d="M971.403,3692.589
		c0.898,6.186,2.079,10.233,1.949,14.19c-0.401,12.239-0.398,24.453-1.585,36.748c-0.942,9.753,2.324,21.392,2.172,32.379
		c-0.173,12.463-0.433,24.925-0.499,37.391c-0.061,11.429-0.171,22.872,0.226,34.295c0.301,8.673-2.831,13.253-9.533,15.595
		c-11.317,3.954-22.364,9.092-33.681,10.609c-4.441-6.494-3.284-12.938-3.203-19.011c0.417-31.06-0.661-62.102,2.755-93.145
		c1.356-12.319-1.55-26.06-1.558-39.26c-0.007-11.107,3.925-17.002,12.842-19.482
		C951.173,3700.148,960.825,3696.266,971.403,3692.589z"/>
	<g id="window4_00000088102345446084143330000013497213548516916617_">
		<path fill="#F1DD70" d="M560.664,4761.599c18.13-5.725,33.771-10.664,48.674-15.37c4.859,4.914,4.326,10.233,3.934,15.299
			c-3.826,49.513-7.872,98.997-11.524,148.532c-0.862,11.69-4.819,19.192-14.69,21.104c-13.38,2.592-25.668,11.28-39.815,9.573
			c-5.403-16.274-0.004-32.127,1.08-47.996c2.327-34.062,5.909-67.975,9.07-101.935
			C558.252,4781.576,559.445,4772.397,560.664,4761.599z"/>
		<path fill="#F1DD70" d="M563.29,4730.602c1.392-15.356,3.274-30.667,4.014-46.083c0.544-11.328,5.232-16.377,13.829-18.428
			c6.668-1.59,13.118-4.374,19.756-6.172c21.06-5.706,21.649-3.058,19.008,18.962c-0.244,2.031-0.13,4.128-0.316,6.174
			c-5.686,62.742,3.725,44.447-45.431,61.871c-8.997,3.189-11.381-0.391-10.778-13.194c0.048-1.029,0.16-2.053,0.242-3.079
			C563.506,4730.635,563.398,4730.619,563.29,4730.602z"/>
	</g>
	<g id="window3_00000050625158111001678270000011121459804841866661_">
		<path fill="#F1DD70" d="M1178.001,5076.524c1.199,5.075,1.996,7.041,2.088,9.04c3.231,70.649,6.467,141.298,9.518,211.955
			c0.691,15.999-0.587,17.905-12.802,21.488c-12.484,3.661-25.325,5.913-37.539,10.516c-18.403,6.935-19.392,3.387-19.935-16.558
			c-1.841-67.562-3.7-135.125-5.577-202.687c-0.349-12.561-0.299-17.75,13.447-20.705
			C1143.939,5085.975,1159.797,5077.396,1178.001,5076.524z"/>
		<path fill="#F1DD70" d="M1170.894,4884.96c3.834,35.232,2.593,71.281,5.522,107.185c-15.695,9.889-32.091,11.775-47.591,16.935
			c-4.553,1.515-10.352,5.206-14.217-1.187c-4.537-7.504-2.318-23.663,3.467-30.504c1.117-1.322,4.153-1.508,4.28-2.602
			c0.47-4.06-0.069,0.248-2.369-0.175c-10.625-1.952-8.591-11.471-8.653-19.091c-0.141-17.537-2.917-35.127-0.244-52.617
			c12.404-9.684,27.166-10.625,40.906-15.369C1157.709,4885.562,1163.212,4882.514,1170.894,4884.96z"/>
		<path fill="#F1DD70" d="M1110.918,5034.829c1.419-16.524-3.917-32.117,1.683-47.031c11.465-3.854,22.964-7.575,34.388-11.588
			c32.489-11.415,27.951-8.208,29.833,27.275c0.712,13.431,1.341,26.874,1.677,40.315c0.424,16.946,0.279,16.95-12.458,21.261
			c-4.921,1.666-9.783,4.469-14.779,4.757c-12.511,0.72-23.439,12.541-36.781,6.663
			C1110.318,5062.423,1113.128,5047.764,1110.918,5034.829z"/>
	</g>
	<g id="window2_00000031200039701722263190000015596054247154287021_">
		<path fill="#F1DD70" d="M731.381,6215.445c-1.757,49.29-3.432,96.906-5.157,144.521c-1.5,41.409-3.012,82.817-4.622,124.218
			c-0.403,10.348-1.158,20.669-1.845,30.992c-0.372,5.599-2.46,10.014-7.237,11.21c-20.933,5.238-41.893,10.331-62.872,15.31
			c-3.859,0.916-6.797-1.387-7.177-6.207c-0.486-6.174-0.613-12.444-0.307-18.62c4.564-92.018,9.122-184.038,13.918-276.034
			c1.684-32.295,1.967-32.316,27.771-39.272c12.518-3.376,25.058-6.654,37.632-9.733c6.382-1.565,9.385,1.504,9.783,9.743
			C731.519,6206.745,731.364,6211.937,731.381,6215.445z"/>
		<path fill="#F1DD70" d="M735.261,6024.924c3.997,6.005,3.366,11.364,3.179,16.423c-1.418,38.366-3.111,76.713-4.408,115.087
			c-0.295,8.727-3.356,12.91-10.369,14.553c-17.663,4.137-35.213,8.916-52.835,13.292c-7.184,1.784-10.5-0.738-10.162-8.618
			c1.779-41.456,3.885-82.883,5.814-124.327c0.276-5.938,2.636-9.669,7.338-10.959
			C694.447,6034.717,714.843,6027.646,735.261,6024.924z"/>
	</g>
	<g id="window1_00000160171669325442893390000013848947003736104593_">
		<path fill="#F1DD70" d="M442.663,7940.719c-5.593,0.255-9.878,0.925-14.093,0.459c-2.379-0.263-4.723-2.324-4.645-6.141
			c0.085-4.125,0.046-8.265,0.324-12.368c8.408-124.044,16.88-248.08,25.257-372.128c1.745-25.843,2.901-51.759,4.803-77.58
			c1.301-17.678,2.506-18.655,16.551-21.312c19.497-3.688,38.951-7.691,58.487-11.085c12.649-2.196,14.78,0.568,13.873,16.828
			c-2.078,37.257-4.38,74.493-6.443,111.752c-5.215,94.191-10.353,188.391-15.51,282.589c-1.077,19.671-1.945,39.366-3.204,59.016
			c-0.906,14.13-2.633,16.691-13.063,18.69C483.816,7933.5,462.571,7937.141,442.663,7940.719z"/>
		<path fill="#F1DD70" d="M126.377,7999.244c3.698-36.621,6.748-68.352,10.128-100.023
			c13.044-122.222,26.194-244.424,39.292-366.635c0.33-3.081,0.532-6.186,0.761-9.284c0.525-7.098,3.996-11.467,9.421-12.844
			c7.533-1.914,15.197-3.258,22.863-4.315c17.437-2.407,34.16-12.661,52.435-5.974c3.025,20.916-1.958,41.026-3.796,61.364
			c-9.496,105.042-19.593,209.994-29.506,314.972c-2.819,29.851-5.802,59.675-8.554,89.537c-0.928,10.07-3.26,17.143-13.283,18.701
			C180.703,7988.695,155.417,7993.874,126.377,7999.244z"/>
		<path fill="#F1DD70" d="M552.082,7227.497c5.211,7.033,3.497,14.603,3.132,21.563c-2.603,49.675-5.447,99.328-8.33,148.976
			c-0.685,11.79-2.529,15.017-11.568,16.944c-21.947,4.679-43.978,8.861-66.029,12.854c-8.353,1.512-10.08-0.903-9.947-12.233
			c0.085-7.264,0.339-14.538,0.83-21.769c3.018-44.422,6.093-88.839,9.221-133.249c1.062-15.075,2.768-18.461,14.806-20.425
			C507.03,7236.433,529.249,7228.099,552.082,7227.497z"/>
		<path fill="#F1DD70" d="M283.622,7283.245c-1.353,15.278-2.286,26.414-3.333,37.531c-4.073,43.229-7.966,86.488-12.371,129.66
			c-2.066,20.249-2.514,20.241-18.073,23.338c-19.459,3.873-38.917,7.755-58.417,11.345c-6.538,1.205-9.758-2.292-9.042-10.403
			c2.547-28.839,5.407-57.633,8.316-86.416c2.39-23.65,5.266-47.221,7.428-70.904c0.956-10.469,3.904-17.137,13.392-18.956
			C234.351,7294.064,257.065,7288.899,283.622,7283.245z"/>
	</g>
</g>
<style>
#g-cost_of_sunlight_buildings_full-full-size-interactions-img rect, #g-cost_of_sunlight_buildings_full-full-size-interactions-img circle, #g-cost_of_sunlight_buildings_full-full-size-interactions-img path, #g-cost_of_sunlight_buildings_full-full-size-interactions-img line, #g-cost_of_sunlight_buildings_full-full-size-interactions-img polyline { vector-effect: non-scaling-stroke; }
</style>
</svg>

