<?xml version="1.0" encoding="utf-8"?>
<!-- Generator: Adobe Illustrator 27.6.1, SVG Export Plug-In . SVG Version: 6.00 Build 0)  -->
<svg version="1.2" baseProfile="tiny" id="g-cost_of_sunlight_buildings_full-laptop-interactions-img" xmlns="http://www.w3.org/2000/svg" xmlns:xlink="http://www.w3.org/1999/xlink"
	 x="0px" y="0px" viewBox="0 0 1025 6933" overflow="visible" xml:space="preserve">
<g>
	<path id="window9_00000104670653609255620230000003591512881081271448_" fill="#F1DD70" d="M696.99,1469.239
		c-4.301-4.594,1.692-8.677,0.044-13.666c-1.47-4.451-1.131-9.825-1.246-14.795c-0.107-4.645,1.991-7.456,5.654-9.046
		c4.757-2.063,7.852,0.831,8.283,6.51c0.663,8.731-7.697,16.142-1.918,25.376C704.929,1467.534,701.334,1469.47,696.99,1469.239z"/>
	<path id="window7_00000040536567591667175740000015121799395750782340_" fill="#F1DD70" d="M678.941,1769.391
		c-3.329-4.402-1.794-9.728-1.72-14.523c0.321-20.549,2.297-22.095,17.151-24.067c3.111,5.394,1.913,11.369,1.595,17.111
		C695.059,1764.316,694.97,1764.307,678.941,1769.391z"/>
	<path id="window6_00000041259956869677247160000003598991958065241013_" fill="#F1DD70" d="M644.677,2358.757
		c-2.084-14.27-0.737-26.037-0.06-37.777c0.241-4.173,1.329-8.255,1.589-12.428c1.133-18.133,4.465-22.381,19.917-24.42
		c3.535-0.466,5.104,2.452,4.997,6.146c-0.49,16.92-1.426,33.817-1.702,50.745c-0.12,7.333-3.379,10.775-8.356,12.674
		C656.426,2355.466,651.625,2356.643,644.677,2358.757z"/>
	<path id="window5_00000137095844994088283340000012155843747129795727_" fill="#F1DD70" d="M751.684,3043.991
		c0.737,5.073,1.705,8.393,1.599,11.639c-0.329,10.038-0.326,20.056-1.3,30.14c-0.773,8,1.906,17.546,1.781,26.556
		c-0.142,10.222-0.355,20.443-0.409,30.668c-0.05,9.374-0.14,18.759,0.186,28.128c0.247,7.114-2.322,10.87-7.819,12.791
		c-9.282,3.243-18.343,7.457-27.624,8.701c-3.643-5.326-2.694-10.612-2.627-15.592c0.342-25.475-0.543-50.935,2.259-76.396
		c1.112-10.104-1.272-21.374-1.278-32.2c-0.005-9.11,3.219-13.945,10.533-15.979
		C735.092,3050.191,743.008,3047.007,751.684,3043.991z"/>
	<g id="window4_00000079468622635168029710000004156098719437948308_">
		<path fill="#F1DD70" d="M414.802,3920.778c14.87-4.695,27.699-8.746,39.922-12.606c3.985,4.03,3.548,8.393,3.227,12.549
			c-3.138,40.609-6.456,81.196-9.452,121.823c-0.707,9.589-3.953,15.741-12.049,17.309c-10.974,2.126-21.053,9.252-32.655,7.851
			c-4.431-13.348-0.003-26.35,0.886-39.366c1.909-27.938,4.846-55.752,7.439-83.605
			C412.824,3937.163,413.802,3929.635,414.802,3920.778z"/>
		<path fill="#F1DD70" d="M416.956,3895.354c1.142-12.595,2.685-25.153,3.293-37.797c0.446-9.291,4.292-13.433,11.342-15.115
			c5.469-1.304,10.759-3.587,16.204-5.062c17.273-4.68,17.757-2.508,15.59,15.552c-0.2,1.665-0.107,3.385-0.259,5.064
			c-4.663,51.46,3.055,36.455-37.262,50.745c-7.379,2.615-9.334-0.321-8.84-10.822c0.04-0.844,0.131-1.683,0.198-2.525
			C417.134,3895.382,417.045,3895.368,416.956,3895.354z"/>
	</g>
	<g id="window3_00000161625685772945218410000002934795144249709719_">
		<path fill="#F1DD70" d="M921.134,4179.076c0.983,4.163,1.637,5.775,1.712,7.414c2.65,57.945,5.304,115.891,7.807,173.842
			c0.567,13.122-0.481,14.686-10.5,17.624c-10.239,3.003-20.771,4.85-30.789,8.625c-15.094,5.688-15.905,2.778-16.351-13.581
			c-1.51-55.414-3.034-110.827-4.574-166.241c-0.286-10.302-0.245-14.559,11.029-16.982
			C893.196,4186.827,906.203,4179.79,921.134,4179.076z"/>
		<path fill="#F1DD70" d="M915.304,4021.957c3.145,28.897,2.126,58.464,4.529,87.912c-12.872,8.111-26.32,9.658-39.033,13.89
			c-3.735,1.243-8.491,4.27-11.661-0.974c-3.721-6.155-1.901-19.408,2.844-25.02c0.916-1.083,3.406-1.236,3.51-2.134
			c0.386-3.329-0.057,0.203-1.943-0.144c-8.715-1.601-7.047-9.409-7.097-15.658c-0.115-14.384-2.392-28.811-0.2-43.156
			c10.174-7.943,22.281-8.715,33.551-12.606C904.49,4022.451,909.004,4019.951,915.304,4021.957z"/>
		<path fill="#F1DD70" d="M866.113,4144.877c1.164-13.552-3.212-26.342,1.38-38.574c9.403-3.161,18.835-6.212,28.205-9.504
			c26.647-9.363,22.925-6.732,24.468,22.371c0.584,11.016,1.099,22.042,1.375,33.066c0.348,13.899,0.229,13.902-10.217,17.438
			c-4.036,1.366-8.024,3.666-12.122,3.901c-10.261,0.59-19.225,10.286-30.167,5.465
			C865.621,4167.51,867.926,4155.487,866.113,4144.877z"/>
	</g>
	<g id="window2_00000100359357109997077810000003217235919322291855_">
		<path fill="#F1DD70" d="M554.822,5113.202c-1.441,40.427-2.815,79.481-4.23,118.534c-1.231,33.963-2.47,67.925-3.791,101.882
			c-0.33,8.487-0.95,16.953-1.513,25.42c-0.305,4.592-2.018,8.213-5.935,9.194c-17.169,4.296-34.36,8.474-51.567,12.557
			c-3.165,0.751-5.575-1.138-5.886-5.09c-0.398-5.064-0.503-10.207-0.252-15.271c3.743-75.472,7.482-150.945,11.415-226.399
			c1.381-26.488,1.613-26.505,22.778-32.21c10.267-2.769,20.552-5.458,30.865-7.983c5.235-1.283,7.697,1.234,8.024,7.991
			C554.935,5106.067,554.808,5110.325,554.822,5113.202z"/>
		<path fill="#F1DD70" d="M558.004,4956.939c3.279,4.925,2.761,9.32,2.607,13.47c-1.163,31.467-2.552,62.918-3.615,94.393
			c-0.242,7.157-2.753,10.588-8.504,11.936c-14.487,3.393-28.881,7.312-43.335,10.901c-5.892,1.463-8.612-0.605-8.335-7.068
			c1.459-34.001,3.187-67.979,4.768-101.971c0.227-4.87,2.162-7.931,6.018-8.989
			C524.529,4964.972,541.258,4959.172,558.004,4956.939z"/>
	</g>
	<g id="window1_00000132084866427541827030000014349011108397222562_">
		<path fill="#F1DD70" d="M318.019,6528.248c-4.587,0.209-8.102,0.759-11.559,0.377c-1.951-0.215-3.874-1.906-3.81-5.036
			c0.069-3.383,0.038-6.779,0.266-10.145c6.896-101.739,13.845-203.472,20.715-305.214c1.431-21.196,2.38-42.452,3.939-63.63
			c1.067-14.499,2.056-15.3,13.575-17.479c15.991-3.025,31.947-6.309,47.97-9.092c10.374-1.802,12.122,0.465,11.378,13.802
			c-1.704,30.558-3.592,61.098-5.284,91.657c-4.277,77.255-8.492,154.516-12.721,231.776c-0.883,16.134-1.595,32.287-2.628,48.404
			c-0.743,11.589-2.159,13.69-10.714,15.33C351.772,6522.327,334.348,6525.313,318.019,6528.248z"/>
		<path fill="#F1DD70" d="M58.607,6576.249c3.033-30.036,5.534-56.061,8.307-82.038c10.698-100.245,21.484-200.473,32.227-300.709
			c0.271-2.527,0.436-5.074,0.624-7.615c0.431-5.822,3.277-9.405,7.727-10.535c6.178-1.57,12.465-2.672,18.752-3.54
			c14.302-1.974,28.017-10.384,43.006-4.899c2.481,17.155-1.606,33.649-3.114,50.33c-7.789,86.155-16.07,172.234-24.201,258.336
			c-2.312,24.483-4.759,48.945-7.016,73.437c-0.761,8.259-2.674,14.061-10.895,15.338
			C103.164,6567.597,82.425,6571.844,58.607,6576.249z"/>
		<path fill="#F1DD70" d="M407.764,5943.273c4.274,5.768,2.868,11.977,2.569,17.686c-2.135,40.744-4.468,81.467-6.832,122.188
			c-0.561,9.67-2.074,12.316-9.488,13.897c-18,3.838-36.07,7.268-54.156,10.542c-6.851,1.24-8.267-0.74-8.159-10.033
			c0.07-5.958,0.278-11.923,0.681-17.855c2.475-36.434,4.998-72.864,7.563-109.288c0.871-12.365,2.271-15.142,12.144-16.752
			C370.813,5950.603,389.036,5943.767,407.764,5943.273z"/>
		<path fill="#F1DD70" d="M187.577,5988.997c-1.11,12.531-1.875,21.665-2.734,30.783c-3.34,35.455-6.534,70.937-10.147,106.345
			c-1.694,16.608-2.062,16.601-14.823,19.142c-15.96,3.176-31.919,6.361-47.913,9.305c-5.362,0.988-8.004-1.88-7.416-8.533
			c2.089-23.654,4.435-47.27,6.821-70.877c1.96-19.398,4.319-38.73,6.092-58.155c0.784-8.587,3.202-14.056,10.984-15.547
			C147.165,5997.871,165.795,5993.635,187.577,5988.997z"/>
	</g>
</g>
<style>
#g-cost_of_sunlight_buildings_full-laptop-interactions-img rect, #g-cost_of_sunlight_buildings_full-laptop-interactions-img circle, #g-cost_of_sunlight_buildings_full-laptop-interactions-img path, #g-cost_of_sunlight_buildings_full-laptop-interactions-img line, #g-cost_of_sunlight_buildings_full-laptop-interactions-img polyline { vector-effect: non-scaling-stroke; }
</style>
</svg>

