<?xml version="1.0" encoding="utf-8"?>
<!-- Generator: Adobe Illustrator 27.6.1, SVG Export Plug-In . SVG Version: 6.00 Build 0)  -->
<svg version="1.2" baseProfile="tiny" id="g-cost_of_sunlight_buildings_full-mobile-interactions-img" xmlns="http://www.w3.org/2000/svg" xmlns:xlink="http://www.w3.org/1999/xlink"
	 x="0px" y="0px" viewBox="0 0 1005 5769.8" overflow="visible" xml:space="preserve">
<g>
	<path id="window9_00000157995355641313159150000006119089449505171900_" fill="#F1DD70" d="M804.162,1395.161
		c-4.094-4.372,1.61-8.259,0.042-13.007c-1.399-4.237-1.077-9.351-1.186-14.083c-0.102-4.421,1.896-7.097,5.382-8.61
		c4.528-1.964,7.474,0.791,7.884,6.197c0.631,8.311-7.327,15.365-1.826,24.154C811.719,1393.538,808.297,1395.381,804.162,1395.161z
		"/>
	<path id="window7_00000056411279572016729700000005018833982532673410_" fill="#F1DD70" d="M786.982,1680.856
		c-3.169-4.19-1.708-9.26-1.637-13.823c0.306-19.56,2.186-21.031,16.325-22.908c2.961,5.134,1.821,10.821,1.518,16.286
		C802.325,1676.026,802.239,1676.017,786.982,1680.856z"/>
	<path id="window6_00000012453938742426638540000017691442395562486406_" fill="#F1DD70" d="M754.369,2241.835
		c-1.984-13.583-0.702-24.783-0.057-35.957c0.229-3.972,1.265-7.857,1.513-11.829c1.078-17.259,4.25-21.303,18.958-23.244
		c3.365-0.444,4.858,2.334,4.757,5.85c-0.466,16.105-1.357,32.188-1.62,48.301c-0.114,6.98-3.216,10.256-7.953,12.063
		C765.552,2238.702,760.983,2239.823,754.369,2241.835z"/>
	<path id="window5_00000013164888645565989150000011244565048036756647_" fill="#F1DD70" d="M856.222,2894.065
		c0.701,4.829,1.623,7.989,1.522,11.078c-0.313,9.555-0.311,19.09-1.238,28.688c-0.735,7.614,1.815,16.701,1.695,25.277
		c-0.135,9.73-0.338,19.458-0.389,29.191c-0.047,8.922-0.133,17.856,0.177,26.773c0.235,6.771-2.21,10.346-7.442,12.175
		c-8.835,3.087-17.459,7.098-26.294,8.282c-3.467-5.07-2.564-10.101-2.5-14.841c0.325-24.248-0.516-48.482,2.15-72.716
		c1.058-9.617-1.21-20.344-1.216-30.649c-0.005-8.671,3.064-13.273,10.026-15.209
		C840.429,2899.967,847.964,2896.936,856.222,2894.065z"/>
	<g id="window4_00000075878454111311129950000006883512571311194023_">
		<path fill="#F1DD70" d="M535.566,3728.622c14.154-4.469,26.364-8.325,37.999-11.999c3.793,3.836,3.377,7.989,3.071,11.944
			c-2.987,38.654-6.146,77.285-8.997,115.956c-0.673,9.127-3.762,14.983-11.468,16.475c-10.446,2.023-20.039,8.806-31.083,7.473
			c-4.218-12.705-0.003-25.081,0.843-37.47c1.817-26.592,4.613-53.067,7.081-79.578
			C533.683,3744.217,534.614,3737.052,535.566,3728.622z"/>
		<path fill="#F1DD70" d="M537.616,3704.423c1.087-11.988,2.556-23.942,3.134-35.976c0.425-8.843,4.085-12.786,10.796-14.386
			c5.206-1.242,10.241-3.414,15.423-4.818c16.441-4.454,16.901-2.387,14.839,14.803c-0.19,1.585-0.102,3.222-0.247,4.82
			c-4.439,48.981,2.908,34.699-35.467,48.301c-7.024,2.49-8.885-0.305-8.414-10.3c0.038-0.803,0.125-1.603,0.189-2.403
			C537.785,3704.449,537.701,3704.436,537.616,3704.423z"/>
	</g>
	<g id="window3_00000124857672933839253030000014468370894148033156_">
		<path fill="#F1DD70" d="M1017.51,3974.478c0.936,3.962,1.558,5.497,1.63,7.057c2.523,55.154,5.049,110.309,7.431,165.469
			c0.539,12.49-0.458,13.978-9.994,16.775c-9.746,2.858-19.771,4.616-29.306,8.209c-14.367,5.414-15.139,2.644-15.563-12.927
			c-1.437-52.745-2.888-105.489-4.354-158.233c-0.272-9.806-0.233-13.857,10.498-16.164
			C990.918,3981.856,1003.299,3975.158,1017.51,3974.478z"/>
		<path fill="#F1DD70" d="M1011.962,3824.927c2.993,27.505,2.024,55.648,4.311,83.677c-12.253,7.72-25.053,9.193-37.153,13.22
			c-3.555,1.183-8.082,4.064-11.099-0.927c-3.542-5.859-1.809-18.474,2.707-23.814c0.872-1.031,3.242-1.177,3.341-2.031
			c0.367-3.169-0.054,0.193-1.85-0.137c-8.295-1.524-6.707-8.955-6.755-14.904c-0.11-13.69-2.277-27.423-0.191-41.077
			c9.684-7.56,21.208-8.295,31.935-11.999C1001.668,3825.397,1005.965,3823.018,1011.962,3824.927z"/>
		<path fill="#F1DD70" d="M965.14,3941.927c1.108-12.9-3.058-25.073,1.314-36.716c8.95-3.009,17.928-5.913,26.846-9.047
			c25.364-8.912,21.821-6.408,23.29,21.293c0.556,10.485,1.047,20.98,1.309,31.474c0.331,13.229,0.217,13.233-9.725,16.598
			c-3.842,1.3-7.637,3.489-11.538,3.714c-9.767,0.562-18.299,9.79-28.714,5.201C964.671,3963.469,966.865,3952.026,965.14,3941.927z
			"/>
	</g>
	<g id="window2_00000045596072489380466190000010379831093934469041_">
		<path fill="#F1DD70" d="M668.842,4863.613c-1.371,38.479-2.679,75.653-4.026,112.824c-1.171,32.328-2.351,64.654-3.608,96.975
			c-0.314,8.078-0.904,16.136-1.44,24.195c-0.29,4.371-1.92,7.817-5.65,8.751c-16.342,4.089-32.705,8.065-49.083,11.952
			c-3.013,0.715-5.307-1.083-5.603-4.845c-0.379-4.82-0.479-9.715-0.24-14.537c3.563-71.836,7.121-143.674,10.865-215.495
			c1.314-25.212,1.535-25.229,21.681-30.659c9.773-2.635,19.562-5.194,29.379-7.598c4.982-1.222,7.327,1.174,7.637,7.606
			C668.95,4856.821,668.828,4860.874,668.842,4863.613z"/>
		<path fill="#F1DD70" d="M671.871,4714.876c3.121,4.688,2.628,8.872,2.482,12.821c-1.107,29.952-2.429,59.888-3.441,89.846
			c-0.23,6.813-2.62,10.079-8.095,11.361c-13.789,3.229-27.49,6.96-41.247,10.376c-5.608,1.393-8.197-0.576-7.933-6.728
			c1.389-32.364,3.033-64.706,4.539-97.06c0.216-4.635,2.058-7.549,5.729-8.556C640.008,4722.522,655.931,4717.001,671.871,4714.876
			z"/>
	</g>
	<g id="window1_00000127734141754273647430000007649759414779482270_">
		<path fill="#F1DD70" d="M443.445,6210.502c-4.366,0.199-7.711,0.722-11.002,0.358c-1.857-0.205-3.687-1.814-3.626-4.793
			c0.066-3.22,0.036-6.453,0.253-9.656c6.564-96.839,13.178-193.672,19.717-290.514c1.362-20.175,2.265-40.407,3.749-60.565
			c1.016-13.8,1.957-14.563,12.921-16.638c15.221-2.879,30.409-6.004,45.66-8.654c9.875-1.715,11.538,0.443,10.83,13.137
			c-1.622,29.086-3.419,58.155-5.03,87.243c-4.071,73.534-8.083,147.074-12.108,220.612c-0.841,15.356-1.518,30.732-2.501,46.072
			c-0.707,11.031-2.055,13.031-10.198,14.591C475.572,6204.866,458.987,6207.709,443.445,6210.502z"/>
		<path fill="#F1DD70" d="M196.527,6256.192c2.887-28.59,5.268-53.361,7.907-78.087c10.183-95.416,20.449-190.817,30.675-286.225
			c0.258-2.405,0.415-4.83,0.594-7.248c0.41-5.542,3.12-8.952,7.354-10.027c5.881-1.494,11.864-2.543,17.849-3.369
			c13.613-1.879,26.668-9.884,40.935-4.664c2.362,16.329-1.529,32.029-2.964,47.906c-7.413,82.005-15.296,163.938-23.035,245.893
			c-2.2,23.304-4.529,46.587-6.678,69.9c-0.725,7.861-2.545,13.383-10.37,14.6C238.938,6247.957,219.198,6252,196.527,6256.192z"/>
		<path fill="#F1DD70" d="M528.867,5653.703c4.068,5.49,2.73,11.4,2.445,16.834c-2.032,38.781-4.252,77.543-6.503,116.302
			c-0.534,9.205-1.974,11.724-9.031,13.228c-17.133,3.653-34.333,6.918-51.548,10.035c-6.521,1.18-7.869-0.705-7.766-9.55
			c0.066-5.671,0.264-11.349,0.648-16.995c2.356-34.68,4.757-69.355,7.199-104.024c0.829-11.769,2.161-14.413,11.559-15.945
			C493.695,5660.68,511.041,5654.173,528.867,5653.703z"/>
		<path fill="#F1DD70" d="M319.285,5697.224c-1.056,11.928-1.784,20.621-2.602,29.3c-3.179,33.748-6.219,67.52-9.658,101.223
			c-1.613,15.808-1.962,15.802-14.109,18.22c-15.191,3.024-30.382,6.055-45.605,8.857c-5.104,0.941-7.618-1.79-7.059-8.122
			c1.989-22.515,4.221-44.993,6.492-67.463c1.866-18.463,4.111-36.865,5.799-55.354c0.746-8.173,3.048-13.378,10.455-14.798
			C280.82,5705.671,298.552,5701.639,319.285,5697.224z"/>
	</g>
</g>
<style>
#g-cost_of_sunlight_buildings_full-mobile-interactions-img rect, #g-cost_of_sunlight_buildings_full-mobile-interactions-img circle, #g-cost_of_sunlight_buildings_full-mobile-interactions-img path, #g-cost_of_sunlight_buildings_full-mobile-interactions-img line, #g-cost_of_sunlight_buildings_full-mobile-interactions-img polyline { vector-effect: non-scaling-stroke; }
</style>
</svg>

