<?xml version="1.0" encoding="utf-8"?>
<!-- Generator: Adobe Illustrator 27.6.1, SVG Export Plug-In . SVG Version: 6.00 Build 0)  -->
<svg version="1.2" baseProfile="tiny" id="g-cost_of_sunlight_buildings_full-imac-interactions-img" xmlns="http://www.w3.org/2000/svg" xmlns:xlink="http://www.w3.org/1999/xlink"
	 x="0px" y="0px" viewBox="0 0 1967.5 9335" overflow="visible" xml:space="preserve">
<g>
	<path id="window9_00000029007838763901936610000009976787737370620563_" fill="#F1DD70" d="M1092.907,2075.67
		c-6.076-6.503,2.39-12.284,0.062-19.345c-2.077-6.301-1.598-13.908-1.76-20.944c-0.151-6.575,2.813-10.555,7.988-12.805
		c6.72-2.921,11.093,1.177,11.702,9.216c0.937,12.36-10.874,22.851-2.71,35.922
		C1104.122,2073.255,1099.044,2075.997,1092.907,2075.67z"/>
	<g id="window8_00000109000927969582846360000016122409409310892184_">
		<path fill="#F1DD70" d="M1571.766,2330.92c8.998,15.266,25.373,21.553,30.359,38.87c15.044,6.199,14.372,20.995,13.931,35.799
			c-8.842-1.077-4.601-15.941-13.559-17.665c-8.117-1.562-10.631-10.095-11.315-18.923c-0.694-8.961-4.47-8.019-9.804-6.162
			c-1.109,0.386-4.593-4.563-5.328-7.606C1574.132,2347.293,1573.132,2339.046,1571.766,2330.92z"/>
	</g>
	<path id="window7_00000106116388826150196880000003450704111634236588_" fill="#F1DD70" d="M1067.409,2500.568
		c-4.703-6.232-2.535-13.772-2.429-20.559c0.453-29.09,3.245-31.278,24.229-34.07c4.394,7.636,2.703,16.093,2.254,24.222
		C1090.18,2493.383,1090.053,2493.37,1067.409,2500.568z"/>
	<path id="window6_00000132799687461928351390000016806335631370403255_" fill="#F1DD70" d="M1019.003,3334.879
		c-2.945-20.201-1.041-36.858-0.084-53.477c0.34-5.907,1.877-11.686,2.245-17.593c1.6-25.668,6.307-31.682,28.138-34.569
		c4.995-0.66,7.21,3.471,7.06,8.7c-0.692,23.953-2.015,47.872-2.404,71.835c-0.169,10.381-4.774,15.254-11.805,17.941
		C1035.601,3330.22,1028.82,3331.887,1019.003,3334.879z"/>
	<path id="window5_00000156581296938257339630000006277137706716075151_" fill="#F1DD70" d="M1170.175,4304.904
		c1.041,7.182,2.409,11.881,2.259,16.476c-0.465,14.21-0.461,28.391-1.837,42.667c-1.092,11.324,2.693,24.838,2.516,37.594
		c-0.2,14.471-0.502,28.939-0.578,43.414c-0.07,13.27-0.198,26.556,0.262,39.818c0.349,10.07-3.28,15.388-11.046,18.106
		c-13.113,4.591-25.913,10.556-39.026,12.317c-5.146-7.54-3.805-15.022-3.711-22.073c0.483-36.062-0.766-72.104,3.192-108.146
		c1.571-14.303-1.796-30.257-1.805-45.583c-0.008-12.896,4.547-19.74,14.88-22.621
		C1146.735,4313.681,1157.919,4309.173,1170.175,4304.904z"/>
	<g id="window4_00000175293187141222810650000013632489217868944027_">
		<path fill="#F1DD70" d="M694.255,5546.092c21.007-6.647,39.13-12.381,56.399-17.845c5.63,5.705,5.012,11.881,4.558,17.764
			c-4.433,57.487-9.121,114.941-13.353,172.455c-0.998,13.573-5.584,22.283-17.021,24.502c-15.504,3.01-29.742,13.097-46.133,11.115
			c-6.26-18.896-0.005-37.301,1.251-55.727c2.697-39.549,6.846-78.923,10.509-118.353
			C691.46,5569.287,692.842,5558.629,694.255,5546.092z"/>
		<path fill="#F1DD70" d="M697.298,5510.102c1.613-17.83,3.794-35.607,4.651-53.505c0.63-13.152,6.063-19.015,16.024-21.396
			c7.726-1.847,15.2-5.078,22.891-7.166c24.402-6.625,25.085-3.551,22.024,22.016c-0.282,2.357-0.151,4.792-0.366,7.168
			c-6.588,72.847,4.316,51.605-52.641,71.835c-10.425,3.703-13.187-0.454-12.489-15.319c0.056-1.194,0.185-2.383,0.28-3.574
			C697.548,5510.141,697.423,5510.122,697.298,5510.102z"/>
	</g>
	<g id="window3_00000040569076250204267860000001091353672230151848_">
		<path fill="#F1DD70" d="M1409.56,5911.74c1.389,5.893,2.313,8.175,2.419,10.495c3.744,82.028,7.493,164.057,11.028,246.093
			c0.801,18.575-0.68,20.789-14.833,24.949c-14.465,4.25-29.344,6.865-43.497,12.209c-21.324,8.051-22.469,3.933-23.099-19.225
			c-2.133-78.444-4.287-156.888-6.462-235.332c-0.404-14.584-0.346-20.609,15.581-24.04
			C1370.092,5922.712,1388.467,5912.751,1409.56,5911.74z"/>
		<path fill="#F1DD70" d="M1401.325,5689.322c4.443,40.907,3.004,82.762,6.398,124.449c-18.185,11.482-37.183,13.672-55.143,19.662
			c-5.276,1.759-11.995,6.044-16.474-1.378c-5.257-8.713-2.686-27.474,4.017-35.417c1.295-1.534,4.812-1.75,4.959-3.021
			c0.545-4.713-0.08,0.288-2.745-0.204c-12.311-2.266-9.955-13.319-10.026-22.166c-0.163-20.361-3.38-40.785-0.283-61.091
			c14.372-11.244,31.477-12.337,47.398-17.845C1386.047,5690.021,1392.424,5686.481,1401.325,5689.322z"/>
		<path fill="#F1DD70" d="M1331.831,5863.33c1.644-19.186-4.538-37.29,1.95-54.606c13.284-4.475,26.608-8.794,39.845-13.455
			c37.645-13.254,32.387-9.53,34.567,31.668c0.825,15.594,1.553,31.202,1.943,46.809c0.491,19.675,0.323,19.68-14.434,24.686
			c-5.702,1.934-11.335,5.189-17.125,5.523c-14.496,0.835-27.159,14.56-42.618,7.736
			C1331.136,5895.368,1334.392,5878.348,1331.831,5863.33z"/>
	</g>
	<g id="window2_00000121961381054870731990000007322164989619574967_">
		<path fill="#F1DD70" d="M892.064,7234.099c-2.036,57.229-3.977,112.515-5.976,167.798c-1.739,48.079-3.49,96.155-5.355,144.225
			c-0.466,12.014-1.342,23.998-2.137,35.984c-0.431,6.5-2.85,11.627-8.385,13.016c-24.255,6.083-48.541,11.996-72.85,17.775
			c-4.471,1.063-7.876-1.61-8.315-7.206c-0.563-7.168-0.71-14.449-0.356-21.619c5.288-106.839,10.57-213.679,16.127-320.493
			c1.951-37.497,2.279-37.521,32.179-45.598c14.505-3.919,29.034-7.725,43.604-11.3c7.395-1.817,10.874,1.747,11.335,11.312
			C892.224,7223.998,892.043,7230.026,892.064,7234.099z"/>
		<path fill="#F1DD70" d="M896.559,7012.892c4.632,6.973,3.901,13.194,3.684,19.068c-1.643,44.545-3.605,89.068-5.107,133.623
			c-0.342,10.132-3.889,14.989-12.014,16.897c-20.466,4.803-40.801,10.352-61.22,15.432c-8.324,2.072-12.167-0.857-11.775-10.006
			c2.062-48.132,4.502-96.233,6.736-144.351c0.32-6.894,3.054-11.227,8.502-12.724
			C849.269,7024.263,872.901,7016.052,896.559,7012.892z"/>
	</g>
	<g id="window1_00000183242175398960322570000011950488709263047090_">
		<path fill="#F1DD70" d="M557.527,9237.251c-6.481,0.297-11.445,1.074-16.33,0.533c-2.756-0.305-5.472-2.698-5.382-7.129
			c0.098-4.789,0.053-9.597,0.375-14.361c9.742-144.022,19.559-288.036,29.265-432.063c2.022-30.005,3.362-60.095,5.565-90.075
			c1.508-20.525,2.904-21.659,19.178-24.744c22.591-4.282,45.133-8.931,67.768-12.871c14.656-2.55,17.125,0.659,16.074,19.538
			c-2.408,43.258-5.075,86.491-7.465,129.751c-6.042,109.363-11.996,218.735-17.971,328.104
			c-1.248,22.839-2.253,45.706-3.712,68.521c-1.049,16.406-3.051,19.38-15.137,21.7
			C605.211,9228.869,580.595,9233.097,557.527,9237.251z"/>
		<path fill="#F1DD70" d="M191.049,9305.202c4.285-42.52,7.818-79.36,11.735-116.134c15.114-141.907,30.351-283.792,45.528-425.687
			c0.383-3.577,0.616-7.183,0.882-10.779c0.608-8.241,4.63-13.314,10.916-14.913c8.728-2.223,17.609-3.783,26.491-5.011
			c20.205-2.795,39.581-14.7,60.756-6.936c3.505,24.284-2.269,47.634-4.399,71.247c-11.003,121.961-22.702,243.815-34.189,365.702
			c-3.266,34.659-6.723,69.287-9.911,103.958c-1.075,11.692-3.777,19.904-15.391,21.714
			C253.996,9292.955,224.698,9298.967,191.049,9305.202z"/>
		<path fill="#F1DD70" d="M684.311,8409.155c6.038,8.165,4.052,16.954,3.629,25.036c-3.016,57.677-6.311,115.326-9.651,172.97
			c-0.793,13.689-2.93,17.436-13.404,19.673c-25.43,5.434-50.957,10.289-76.507,14.925c-9.679,1.755-11.68-1.049-11.526-14.204
			c0.098-8.434,0.392-16.879,0.962-25.275c3.497-51.576,7.06-103.147,10.684-154.709c1.23-17.504,3.208-21.436,17.156-23.715
			C632.11,8419.531,657.854,8409.854,684.311,8409.155z"/>
		<path fill="#F1DD70" d="M373.248,8473.882c-1.568,17.739-2.648,30.669-3.862,43.576c-4.719,50.191-9.23,100.418-14.335,150.544
			c-2.393,23.511-2.912,23.5-20.941,27.097c-22.547,4.497-45.093,9.005-67.688,13.173c-7.575,1.398-11.307-2.661-10.477-12.079
			c2.951-33.484,6.265-66.916,9.636-100.335c2.769-27.459,6.102-54.826,8.607-82.324c1.107-12.155,4.524-19.897,15.517-22.009
			C316.158,8486.443,342.477,8480.447,373.248,8473.882z"/>
	</g>
</g>
<style>
#g-cost_of_sunlight_buildings_full-imac-interactions-img rect, #g-cost_of_sunlight_buildings_full-imac-interactions-img circle, #g-cost_of_sunlight_buildings_full-imac-interactions-img path, #g-cost_of_sunlight_buildings_full-imac-interactions-img line, #g-cost_of_sunlight_buildings_full-imac-interactions-img polyline { vector-effect: non-scaling-stroke; }
</style>
</svg>

